<?xml version="1.0" standalone="no"?>
<!DOCTYPE svg PUBLIC "-//W3C//DTD SVG 20010904//EN"
 "http://www.w3.org/TR/2001/REC-SVG-20010904/DTD/svg10.dtd">
<svg version="1.0" xmlns="http://www.w3.org/2000/svg"
 width="32.000000pt" height="32.000000pt" viewBox="0 0 32.000000 32.000000"
 preserveAspectRatio="xMidYMid meet">

<g transform="translate(0.000000,32.000000) scale(0.100000,-0.100000)"
fill="#000000" stroke="none">
<path d="M92 304 c-18 -10 -45 -33 -60 -52 -22 -29 -27 -46 -27 -93 0 -62 17
-94 69 -133 39 -29 133 -29 172 0 66 49 90 126 61 195 -33 80 -141 121 -215
83z m140 -54 l33 -31 -39 26 c-44 29 -75 31 -116 10 -62 -32 -76 -119 -28
-174 l22 -26 -27 26 c-54 49 -45 142 17 180 48 29 99 25 138 -11z m-35 -20 c8
0 11 -4 8 -10 -3 -5 -29 -10 -57 -10 -45 0 -49 2 -37 16 9 11 22 14 42 10 16
-3 36 -6 44 -6z m7 -59 c-5 -5 -35 -11 -66 -13 -44 -2 -54 0 -46 10 6 7 34 12
66 12 34 0 52 -4 46 -9z m-9 -62 c-27 -10 -93 -11 -99 0 -9 14 0 16 61 12 42
-2 52 -6 38 -12z"/>
</g>
</svg>
